<svg width="25" height="25" viewBox="0 0 25 25" fill="none" xmlns="http://www.w3.org/2000/svg">
<path d="M11.8731 0.00412606C9.86683 0.0283448 5.55355 0.358032 3.14105 2.57131C1.34652 4.34944 0.719953 6.97835 0.646516 10.2291C0.585578 13.4682 0.512141 19.551 6.37542 21.2073V23.7299C6.37542 23.7299 6.3387 24.7393 7.00589 24.9463C7.82777 25.2065 8.29574 24.4299 9.07699 23.5955L10.534 21.9479C14.5457 22.2815 17.6184 21.5127 17.9723 21.3987C18.7864 21.1385 23.3715 20.5526 24.1207 14.469C24.8895 8.18616 23.7465 4.22756 21.6832 2.43694H21.6707C21.0481 1.8635 18.5457 0.0400636 12.9551 0.0197511C12.9551 0.0197511 12.5403 -0.00837394 11.8731 0.00334481V0.00412606ZM11.9418 1.77053C12.5114 1.76663 12.8575 1.79084 12.8575 1.79084C17.5895 1.80334 19.8481 3.22756 20.3809 3.70725C22.1184 5.19631 23.0137 8.76506 22.3582 14.0104C21.7356 19.0963 18.0168 19.4182 17.3285 19.6377C17.0356 19.7315 14.3293 20.3987 10.92 20.1791C10.92 20.1791 8.38089 23.2432 7.58714 24.0323C7.46136 24.1705 7.31449 24.2112 7.22074 24.1908C7.08636 24.158 7.04573 23.9916 7.05355 23.7635L7.07777 19.5768C2.10511 18.2018 2.39808 13.0135 2.4512 10.3033C2.51214 7.59319 3.02073 5.376 4.5348 3.87444C6.57308 2.03147 10.2356 1.78303 11.9403 1.77053H11.9418ZM12.3168 4.47991C12.2759 4.4795 12.2353 4.48719 12.1974 4.50254C12.1594 4.51789 12.1249 4.5406 12.0958 4.56936C12.0666 4.59812 12.0435 4.63236 12.0277 4.6701C12.0118 4.70785 12.0036 4.74835 12.0035 4.78928C12.0035 4.96428 12.1457 5.10256 12.3168 5.10256C13.0914 5.08783 13.8613 5.2266 14.582 5.51087C15.3027 5.79513 15.9601 6.21927 16.516 6.75881C17.6512 7.86116 18.2043 9.34241 18.2254 11.2791C18.2254 11.4502 18.3637 11.5924 18.5387 11.5924V11.5799C18.6212 11.5801 18.7004 11.5477 18.7591 11.4898C18.8178 11.4318 18.8512 11.353 18.852 11.2705C18.8899 10.3589 18.7421 9.44914 18.4175 8.59644C18.0929 7.74375 17.5983 6.96597 16.9637 6.31038C15.727 5.10178 14.1598 4.47913 12.3168 4.47913V4.47991ZM8.19886 5.19631C7.97773 5.164 7.75219 5.20839 7.5598 5.32209H7.54339C7.09672 5.58392 6.69434 5.91485 6.3512 6.30256C6.06605 6.63225 5.91136 6.96584 5.87073 7.28694C5.84652 7.47834 5.86292 7.66975 5.91995 7.85256L5.94027 7.86506C6.26136 8.80881 6.68089 9.71663 7.19339 10.5713C7.85356 11.7721 8.66601 12.8825 9.61058 13.8752L9.6387 13.9158L9.68324 13.9487L9.71136 13.9815L9.74417 14.0096C10.7404 14.9569 11.8536 15.7732 13.0567 16.4385C14.4317 17.1869 15.266 17.5408 15.7668 17.6877V17.6955C15.9137 17.7401 16.0473 17.7604 16.1817 17.7604C16.6085 17.7291 17.0125 17.5558 17.3293 17.2682C17.7153 16.925 18.0425 16.5209 18.2981 16.0721V16.0643C18.5379 15.6127 18.4567 15.1854 18.1106 14.8963C17.4175 14.2905 16.668 13.7523 15.8723 13.2893C15.3395 13.0002 14.7981 13.1752 14.5785 13.4682L14.1106 14.058C13.8707 14.351 13.4348 14.3104 13.4348 14.3104L13.4223 14.3182C10.1715 13.4877 9.30433 10.1963 9.30433 10.1963C9.30433 10.1963 9.2637 9.74866 9.56448 9.52053L10.1504 9.04866C10.4309 8.82053 10.6262 8.27991 10.3254 7.74631C9.86558 6.94956 9.32863 6.19987 8.7223 5.50803C8.58974 5.34493 8.40378 5.23396 8.1973 5.19475L8.19886 5.19631ZM12.8575 6.12444C12.4426 6.12444 12.4426 6.751 12.8614 6.751C13.3772 6.75937 13.8863 6.86931 14.3597 7.07454C14.833 7.27978 15.2613 7.57627 15.62 7.94709C15.9472 8.30804 16.1986 8.73099 16.3594 9.19088C16.5201 9.65077 16.587 10.1382 16.5559 10.6244C16.5573 10.7067 16.5909 10.7852 16.6495 10.843C16.708 10.9008 16.7869 10.9334 16.8692 10.9338L16.8817 10.9502C16.9646 10.9496 17.0439 10.9164 17.1025 10.8578C17.1611 10.7992 17.1943 10.7198 17.195 10.6369C17.2231 9.39553 16.8371 8.35413 16.0801 7.51975C15.3192 6.68538 14.2575 6.21741 12.902 6.12444H12.8575ZM13.3707 7.80881C12.9434 7.79631 12.927 8.43538 13.3504 8.44788C14.3801 8.501 14.8801 9.02131 14.9457 10.0916C14.9472 10.1729 14.9803 10.2503 15.0382 10.3074C15.096 10.3645 15.1739 10.3967 15.2551 10.3971H15.2676C15.3094 10.3953 15.3504 10.3852 15.3882 10.3674C15.426 10.3496 15.46 10.3244 15.488 10.2934C15.516 10.2623 15.5375 10.226 15.5513 10.1865C15.5651 10.1471 15.5709 10.1052 15.5684 10.0635C15.495 8.66819 14.734 7.88225 13.3832 7.8096H13.3707V7.80881Z" fill="black" fill-opacity="0.7"/>
</svg>
