<svg width="22" height="22" viewBox="0 0 22 22" fill="none" xmlns="http://www.w3.org/2000/svg">
<path d="M9.63681 18.7272C11.6538 18.7268 13.6127 18.0516 15.2016 16.809L20.197 21.8045L21.8039 20.1977L16.8084 15.2022C18.0516 13.6132 18.7272 11.6539 18.7277 9.63632C18.7277 4.62382 14.6493 0.54541 9.63681 0.54541C4.62431 0.54541 0.545898 4.62382 0.545898 9.63632C0.545898 14.6488 4.62431 18.7272 9.63681 18.7272ZM9.63681 2.81814C13.397 2.81814 16.455 5.87609 16.455 9.63632C16.455 13.3965 13.397 16.4545 9.63681 16.4545C5.87658 16.4545 2.81863 13.3965 2.81863 9.63632C2.81863 5.87609 5.87658 2.81814 9.63681 2.81814Z" fill="#191A19"/>
</svg>
